<mxfile host="app.diagrams.net" agent="Mozilla/5.0 (Windows NT 10.0; Win64; x64; rv:140.0) Gecko/20100101 Firefox/140.0" version="28.0.6" pages="4">
  <diagram name="ProdottoDisponibile" id="25Efme0Ay3es9wh1dyTM">
    <mxGraphModel dx="1852" dy="499" grid="1" gridSize="10" guides="1" tooltips="1" connect="1" arrows="1" fold="1" page="1" pageScale="1" pageWidth="827" pageHeight="1169" math="0" shadow="0">
      <root>
        <mxCell id="0" />
        <mxCell id="1" parent="0" />
        <mxCell id="WGEKUS04sTv0rBj9BLx_-32" style="edgeStyle=orthogonalEdgeStyle;rounded=0;orthogonalLoop=1;jettySize=auto;html=1;exitX=1;exitY=0.5;exitDx=0;exitDy=0;entryX=0;entryY=0.5;entryDx=0;entryDy=0;" parent="1" source="WGEKUS04sTv0rBj9BLx_-2" target="WGEKUS04sTv0rBj9BLx_-4" edge="1">
          <mxGeometry relative="1" as="geometry" />
        </mxCell>
        <mxCell id="WGEKUS04sTv0rBj9BLx_-2" value="" style="ellipse;whiteSpace=wrap;html=1;aspect=fixed;" parent="1" vertex="1">
          <mxGeometry x="170" y="240" width="80" height="80" as="geometry" />
        </mxCell>
        <mxCell id="WGEKUS04sTv0rBj9BLx_-3" value="sonarService" style="rounded=1;whiteSpace=wrap;html=1;" parent="1" vertex="1">
          <mxGeometry x="210" y="290" width="60" height="20" as="geometry" />
        </mxCell>
        <mxCell id="WGEKUS04sTv0rBj9BLx_-22" style="edgeStyle=orthogonalEdgeStyle;rounded=0;orthogonalLoop=1;jettySize=auto;html=1;exitX=1;exitY=0;exitDx=0;exitDy=0;entryX=0.971;entryY=0.291;entryDx=0;entryDy=0;entryPerimeter=0;" parent="1" source="WGEKUS04sTv0rBj9BLx_-4" target="WGEKUS04sTv0rBj9BLx_-7" edge="1">
          <mxGeometry relative="1" as="geometry">
            <mxPoint x="678" y="80" as="targetPoint" />
            <Array as="points">
              <mxPoint x="678" y="166" />
              <mxPoint x="679" y="103" />
            </Array>
          </mxGeometry>
        </mxCell>
        <mxCell id="WGEKUS04sTv0rBj9BLx_-24" style="edgeStyle=orthogonalEdgeStyle;rounded=0;orthogonalLoop=1;jettySize=auto;html=1;exitX=0.5;exitY=1;exitDx=0;exitDy=0;entryX=0.5;entryY=0;entryDx=0;entryDy=0;" parent="1" source="WGEKUS04sTv0rBj9BLx_-4" target="WGEKUS04sTv0rBj9BLx_-11" edge="1">
          <mxGeometry relative="1" as="geometry" />
        </mxCell>
        <mxCell id="WGEKUS04sTv0rBj9BLx_-34" style="edgeStyle=orthogonalEdgeStyle;rounded=0;orthogonalLoop=1;jettySize=auto;html=1;exitX=0;exitY=1;exitDx=0;exitDy=0;entryX=0.5;entryY=0;entryDx=0;entryDy=0;" parent="1" source="WGEKUS04sTv0rBj9BLx_-4" target="WGEKUS04sTv0rBj9BLx_-9" edge="1">
          <mxGeometry relative="1" as="geometry" />
        </mxCell>
        <mxCell id="f1D6WuZxMdPs2gHAFTNx-3" style="edgeStyle=orthogonalEdgeStyle;rounded=0;orthogonalLoop=1;jettySize=auto;html=1;exitX=1;exitY=0.5;exitDx=0;exitDy=0;entryX=0;entryY=0.5;entryDx=0;entryDy=0;" parent="1" source="WGEKUS04sTv0rBj9BLx_-4" target="f1D6WuZxMdPs2gHAFTNx-1" edge="1">
          <mxGeometry relative="1" as="geometry" />
        </mxCell>
        <mxCell id="b7JDsCgxkfN641fADbbu-5" style="edgeStyle=orthogonalEdgeStyle;rounded=0;orthogonalLoop=1;jettySize=auto;html=1;exitX=0;exitY=0;exitDx=0;exitDy=0;entryX=0.5;entryY=1;entryDx=0;entryDy=0;" parent="1" source="WGEKUS04sTv0rBj9BLx_-4" target="WGEKUS04sTv0rBj9BLx_-7" edge="1">
          <mxGeometry relative="1" as="geometry">
            <Array as="points">
              <mxPoint x="622" y="170" />
              <mxPoint x="420" y="170" />
            </Array>
          </mxGeometry>
        </mxCell>
        <mxCell id="WGEKUS04sTv0rBj9BLx_-4" value="" style="ellipse;whiteSpace=wrap;html=1;aspect=fixed;" parent="1" vertex="1">
          <mxGeometry x="610" y="240" width="80" height="80" as="geometry" />
        </mxCell>
        <mxCell id="WGEKUS04sTv0rBj9BLx_-5" value="cargoService" style="rounded=1;whiteSpace=wrap;html=1;" parent="1" vertex="1">
          <mxGeometry x="650" y="290" width="60" height="20" as="geometry" />
        </mxCell>
        <mxCell id="WGEKUS04sTv0rBj9BLx_-17" style="edgeStyle=orthogonalEdgeStyle;rounded=0;orthogonalLoop=1;jettySize=auto;html=1;exitX=1;exitY=0.5;exitDx=0;exitDy=0;entryX=0.5;entryY=0;entryDx=0;entryDy=0;" parent="1" source="WGEKUS04sTv0rBj9BLx_-7" target="WGEKUS04sTv0rBj9BLx_-4" edge="1">
          <mxGeometry relative="1" as="geometry" />
        </mxCell>
        <mxCell id="WGEKUS04sTv0rBj9BLx_-7" value="" style="ellipse;whiteSpace=wrap;html=1;aspect=fixed;" parent="1" vertex="1">
          <mxGeometry x="380" y="80" width="80" height="80" as="geometry" />
        </mxCell>
        <mxCell id="WGEKUS04sTv0rBj9BLx_-8" value="productservice" style="rounded=1;whiteSpace=wrap;html=1;" parent="1" vertex="1">
          <mxGeometry x="420" y="130" width="60" height="20" as="geometry" />
        </mxCell>
        <mxCell id="WGEKUS04sTv0rBj9BLx_-37" style="edgeStyle=orthogonalEdgeStyle;rounded=0;orthogonalLoop=1;jettySize=auto;html=1;exitX=1;exitY=0;exitDx=0;exitDy=0;entryX=0.289;entryY=0.984;entryDx=0;entryDy=0;entryPerimeter=0;" parent="1" source="WGEKUS04sTv0rBj9BLx_-9" target="WGEKUS04sTv0rBj9BLx_-4" edge="1">
          <mxGeometry relative="1" as="geometry">
            <mxPoint x="388" y="320" as="targetPoint" />
            <Array as="points">
              <mxPoint x="388" y="386" />
              <mxPoint x="389" y="319" />
            </Array>
          </mxGeometry>
        </mxCell>
        <mxCell id="WGEKUS04sTv0rBj9BLx_-9" value="" style="ellipse;whiteSpace=wrap;html=1;aspect=fixed;" parent="1" vertex="1">
          <mxGeometry x="320" y="440" width="80" height="80" as="geometry" />
        </mxCell>
        <mxCell id="WGEKUS04sTv0rBj9BLx_-10" value="robotControl" style="rounded=1;whiteSpace=wrap;html=1;" parent="1" vertex="1">
          <mxGeometry x="360" y="490" width="60" height="20" as="geometry" />
        </mxCell>
        <mxCell id="WGEKUS04sTv0rBj9BLx_-11" value="" style="ellipse;whiteSpace=wrap;html=1;aspect=fixed;" parent="1" vertex="1">
          <mxGeometry x="520" y="440" width="80" height="80" as="geometry" />
        </mxCell>
        <mxCell id="WGEKUS04sTv0rBj9BLx_-12" value="cargoHold" style="rounded=1;whiteSpace=wrap;html=1;" parent="1" vertex="1">
          <mxGeometry x="560" y="490" width="60" height="20" as="geometry" />
        </mxCell>
        <mxCell id="WGEKUS04sTv0rBj9BLx_-15" value="Sonar rileva un prodotto legale e registrato, caso ottimo" style="text;html=1;align=center;verticalAlign=middle;whiteSpace=wrap;rounded=0;" parent="1" vertex="1">
          <mxGeometry x="150" y="90" width="220" height="30" as="geometry" />
        </mxCell>
        <mxCell id="WGEKUS04sTv0rBj9BLx_-18" value="1. PID e peso (entry in db)" style="text;html=1;align=center;verticalAlign=middle;whiteSpace=wrap;rounded=0;" parent="1" vertex="1">
          <mxGeometry x="550" y="130" width="100" height="30" as="geometry" />
        </mxCell>
        <mxCell id="WGEKUS04sTv0rBj9BLx_-23" value="4. esito positivo -&amp;gt; ok" style="text;html=1;align=center;verticalAlign=middle;whiteSpace=wrap;rounded=0;" parent="1" vertex="1">
          <mxGeometry x="680" y="120" width="120" height="30" as="geometry" />
        </mxCell>
        <mxCell id="WGEKUS04sTv0rBj9BLx_-25" value="2. slot libero? peso ok? PID" style="text;html=1;align=center;verticalAlign=middle;whiteSpace=wrap;rounded=0;" parent="1" vertex="1">
          <mxGeometry x="540" y="340" width="100" height="30" as="geometry" />
        </mxCell>
        <mxCell id="WGEKUS04sTv0rBj9BLx_-27" value="3. SlotX liber e assegnato a PID" style="text;html=1;align=center;verticalAlign=middle;whiteSpace=wrap;rounded=0;" parent="1" vertex="1">
          <mxGeometry x="670" y="410" width="100" height="30" as="geometry" />
        </mxCell>
        <mxCell id="WGEKUS04sTv0rBj9BLx_-30" style="edgeStyle=orthogonalEdgeStyle;rounded=0;orthogonalLoop=1;jettySize=auto;html=1;exitX=1;exitY=0;exitDx=0;exitDy=0;entryX=0.744;entryY=1.033;entryDx=0;entryDy=0;entryPerimeter=0;" parent="1" source="WGEKUS04sTv0rBj9BLx_-11" target="WGEKUS04sTv0rBj9BLx_-4" edge="1">
          <mxGeometry relative="1" as="geometry" />
        </mxCell>
        <mxCell id="WGEKUS04sTv0rBj9BLx_-31" value="5. T arrivo prodotto alla porta" style="text;html=1;align=center;verticalAlign=middle;whiteSpace=wrap;rounded=0;" parent="1" vertex="1">
          <mxGeometry x="360" y="240" width="140" height="30" as="geometry" />
        </mxCell>
        <mxCell id="WGEKUS04sTv0rBj9BLx_-35" value="6. Prodotto alla porta, inserisci in slotX" style="text;html=1;align=center;verticalAlign=middle;whiteSpace=wrap;rounded=0;" parent="1" vertex="1">
          <mxGeometry x="230" y="340" width="140" height="30" as="geometry" />
        </mxCell>
        <mxCell id="WGEKUS04sTv0rBj9BLx_-38" value="7. Fatto, torno a HOME" style="text;html=1;align=center;verticalAlign=middle;whiteSpace=wrap;rounded=0;" parent="1" vertex="1">
          <mxGeometry x="390" y="320" width="140" height="30" as="geometry" />
        </mxCell>
        <mxCell id="f1D6WuZxMdPs2gHAFTNx-1" value="" style="ellipse;whiteSpace=wrap;html=1;aspect=fixed;" parent="1" vertex="1">
          <mxGeometry x="790" y="240" width="80" height="80" as="geometry" />
        </mxCell>
        <mxCell id="f1D6WuZxMdPs2gHAFTNx-2" value="gui" style="rounded=1;whiteSpace=wrap;html=1;" parent="1" vertex="1">
          <mxGeometry x="830" y="290" width="60" height="20" as="geometry" />
        </mxCell>
        <mxCell id="f1D6WuZxMdPs2gHAFTNx-4" value="8. Aggiorna" style="text;html=1;align=center;verticalAlign=middle;whiteSpace=wrap;rounded=0;" parent="1" vertex="1">
          <mxGeometry x="690" y="250" width="120" height="30" as="geometry" />
        </mxCell>
        <mxCell id="b7JDsCgxkfN641fADbbu-1" value="DUBBI -&lt;br&gt;Da chi ricevo la RequestToLoad???&lt;br&gt;Il prodotto è presente SEMPRE nel productService? ambiguità nei requisiti&lt;div&gt;&lt;br&gt;&lt;/div&gt;" style="text;html=1;align=center;verticalAlign=middle;whiteSpace=wrap;rounded=0;" parent="1" vertex="1">
          <mxGeometry x="-130" y="170" width="190" height="110" as="geometry" />
        </mxCell>
        <mxCell id="b7JDsCgxkfN641fADbbu-6" value="0. Ho ricevuto Request To Load con PID" style="text;html=1;align=center;verticalAlign=middle;whiteSpace=wrap;rounded=0;" parent="1" vertex="1">
          <mxGeometry x="470" y="180" width="100" height="30" as="geometry" />
        </mxCell>
      </root>
    </mxGraphModel>
  </diagram>
  <diagram name="Neg1 - illegalProduct" id="JJoJsT08v6iu-mhNfzCP">
    <mxGraphModel dx="1025" dy="499" grid="1" gridSize="10" guides="1" tooltips="1" connect="1" arrows="1" fold="1" page="1" pageScale="1" pageWidth="827" pageHeight="1169" math="0" shadow="0">
      <root>
        <mxCell id="0" />
        <mxCell id="1" parent="0" />
        <mxCell id="7TsAhdL8rtgzQ2KAtKML-1" value="Prodotto non registrato o peso &amp;gt; max" style="text;html=1;align=center;verticalAlign=middle;whiteSpace=wrap;rounded=0;" parent="1" vertex="1">
          <mxGeometry x="400" y="50" width="200" height="50" as="geometry" />
        </mxCell>
        <mxCell id="kh7jRxRdBOwOGf4_5ecX-2" value="" style="ellipse;whiteSpace=wrap;html=1;aspect=fixed;" parent="1" vertex="1">
          <mxGeometry x="70" y="240" width="80" height="80" as="geometry" />
        </mxCell>
        <mxCell id="kh7jRxRdBOwOGf4_5ecX-3" value="sonarService" style="rounded=1;whiteSpace=wrap;html=1;" parent="1" vertex="1">
          <mxGeometry x="110" y="290" width="60" height="20" as="geometry" />
        </mxCell>
        <mxCell id="kh7jRxRdBOwOGf4_5ecX-8" style="edgeStyle=orthogonalEdgeStyle;rounded=0;orthogonalLoop=1;jettySize=auto;html=1;exitX=0;exitY=0;exitDx=0;exitDy=0;entryX=0.5;entryY=1;entryDx=0;entryDy=0;" parent="1" source="kh7jRxRdBOwOGf4_5ecX-9" target="kh7jRxRdBOwOGf4_5ecX-12" edge="1">
          <mxGeometry relative="1" as="geometry">
            <Array as="points">
              <mxPoint x="522" y="170" />
              <mxPoint x="320" y="170" />
            </Array>
          </mxGeometry>
        </mxCell>
        <mxCell id="AK_VR0vXPfZtuDrAQIk0-1" style="edgeStyle=none;curved=1;rounded=0;orthogonalLoop=1;jettySize=auto;html=1;exitX=1;exitY=0.5;exitDx=0;exitDy=0;entryX=0;entryY=0.5;entryDx=0;entryDy=0;fontSize=12;startSize=8;endSize=8;" parent="1" source="kh7jRxRdBOwOGf4_5ecX-9" target="kh7jRxRdBOwOGf4_5ecX-27" edge="1">
          <mxGeometry relative="1" as="geometry" />
        </mxCell>
        <mxCell id="kh7jRxRdBOwOGf4_5ecX-9" value="" style="ellipse;whiteSpace=wrap;html=1;aspect=fixed;" parent="1" vertex="1">
          <mxGeometry x="510" y="240" width="80" height="80" as="geometry" />
        </mxCell>
        <mxCell id="kh7jRxRdBOwOGf4_5ecX-10" value="cargoService" style="rounded=1;whiteSpace=wrap;html=1;" parent="1" vertex="1">
          <mxGeometry x="550" y="290" width="60" height="20" as="geometry" />
        </mxCell>
        <mxCell id="kh7jRxRdBOwOGf4_5ecX-11" style="edgeStyle=orthogonalEdgeStyle;rounded=0;orthogonalLoop=1;jettySize=auto;html=1;exitX=1;exitY=0.5;exitDx=0;exitDy=0;entryX=0.5;entryY=0;entryDx=0;entryDy=0;" parent="1" source="kh7jRxRdBOwOGf4_5ecX-12" target="kh7jRxRdBOwOGf4_5ecX-9" edge="1">
          <mxGeometry relative="1" as="geometry" />
        </mxCell>
        <mxCell id="kh7jRxRdBOwOGf4_5ecX-12" value="" style="ellipse;whiteSpace=wrap;html=1;aspect=fixed;" parent="1" vertex="1">
          <mxGeometry x="280" y="80" width="80" height="80" as="geometry" />
        </mxCell>
        <mxCell id="kh7jRxRdBOwOGf4_5ecX-13" value="productservice" style="rounded=1;whiteSpace=wrap;html=1;" parent="1" vertex="1">
          <mxGeometry x="320" y="130" width="60" height="20" as="geometry" />
        </mxCell>
        <mxCell id="kh7jRxRdBOwOGf4_5ecX-15" value="" style="ellipse;whiteSpace=wrap;html=1;aspect=fixed;" parent="1" vertex="1">
          <mxGeometry x="220" y="440" width="80" height="80" as="geometry" />
        </mxCell>
        <mxCell id="kh7jRxRdBOwOGf4_5ecX-16" value="robotControl" style="rounded=1;whiteSpace=wrap;html=1;" parent="1" vertex="1">
          <mxGeometry x="260" y="490" width="60" height="20" as="geometry" />
        </mxCell>
        <mxCell id="kh7jRxRdBOwOGf4_5ecX-17" value="" style="ellipse;whiteSpace=wrap;html=1;aspect=fixed;" parent="1" vertex="1">
          <mxGeometry x="420" y="440" width="80" height="80" as="geometry" />
        </mxCell>
        <mxCell id="kh7jRxRdBOwOGf4_5ecX-18" value="cargoHold" style="rounded=1;whiteSpace=wrap;html=1;" parent="1" vertex="1">
          <mxGeometry x="460" y="490" width="60" height="20" as="geometry" />
        </mxCell>
        <mxCell id="kh7jRxRdBOwOGf4_5ecX-19" value="1. PID assente / peso &amp;gt; MAX" style="text;html=1;align=center;verticalAlign=middle;whiteSpace=wrap;rounded=0;" parent="1" vertex="1">
          <mxGeometry x="450" y="130" width="100" height="30" as="geometry" />
        </mxCell>
        <mxCell id="kh7jRxRdBOwOGf4_5ecX-27" value="" style="ellipse;whiteSpace=wrap;html=1;aspect=fixed;" parent="1" vertex="1">
          <mxGeometry x="690" y="240" width="80" height="80" as="geometry" />
        </mxCell>
        <mxCell id="kh7jRxRdBOwOGf4_5ecX-28" value="gui" style="rounded=1;whiteSpace=wrap;html=1;" parent="1" vertex="1">
          <mxGeometry x="730" y="290" width="60" height="20" as="geometry" />
        </mxCell>
        <mxCell id="kh7jRxRdBOwOGf4_5ecX-31" value="0. Ho ricevuto Request To Load con PID" style="text;html=1;align=center;verticalAlign=middle;whiteSpace=wrap;rounded=0;" parent="1" vertex="1">
          <mxGeometry x="370" y="180" width="100" height="30" as="geometry" />
        </mxCell>
        <mxCell id="AK_VR0vXPfZtuDrAQIk0-2" value="2. Aggiorna" style="text;html=1;align=center;verticalAlign=middle;whiteSpace=wrap;rounded=0;" parent="1" vertex="1">
          <mxGeometry x="580" y="250" width="120" height="30" as="geometry" />
        </mxCell>
      </root>
    </mxGraphModel>
  </diagram>
  <diagram name="Neg2 - interrupt" id="SZKAoKg2T0jrM4w7HBy4">
    <mxGraphModel dx="1025" dy="499" grid="1" gridSize="10" guides="1" tooltips="1" connect="1" arrows="1" fold="1" page="1" pageScale="1" pageWidth="827" pageHeight="1169" math="0" shadow="0">
      <root>
        <mxCell id="0" />
        <mxCell id="1" parent="0" />
        <mxCell id="uiuxDL_elA8yQI4Zi2Tw-1" value="Interrupt descritto nei requisiti" style="text;html=1;align=center;verticalAlign=middle;whiteSpace=wrap;rounded=0;" parent="1" vertex="1">
          <mxGeometry x="40" y="20" width="190" height="30" as="geometry" />
        </mxCell>
        <mxCell id="GBLBe9M7HUZ7NNClnXE3-1" style="edgeStyle=orthogonalEdgeStyle;rounded=0;orthogonalLoop=1;jettySize=auto;html=1;exitX=1;exitY=0.5;exitDx=0;exitDy=0;entryX=0;entryY=0.5;entryDx=0;entryDy=0;" parent="1" source="GBLBe9M7HUZ7NNClnXE3-2" target="GBLBe9M7HUZ7NNClnXE3-9" edge="1">
          <mxGeometry relative="1" as="geometry" />
        </mxCell>
        <mxCell id="GBLBe9M7HUZ7NNClnXE3-2" value="" style="ellipse;whiteSpace=wrap;html=1;aspect=fixed;" parent="1" vertex="1">
          <mxGeometry x="130" y="220" width="80" height="80" as="geometry" />
        </mxCell>
        <mxCell id="GBLBe9M7HUZ7NNClnXE3-3" value="sonarService" style="rounded=1;whiteSpace=wrap;html=1;" parent="1" vertex="1">
          <mxGeometry x="170" y="270" width="60" height="20" as="geometry" />
        </mxCell>
        <mxCell id="GBLBe9M7HUZ7NNClnXE3-4" style="edgeStyle=orthogonalEdgeStyle;rounded=0;orthogonalLoop=1;jettySize=auto;html=1;exitX=1;exitY=0;exitDx=0;exitDy=0;entryX=0.971;entryY=0.291;entryDx=0;entryDy=0;entryPerimeter=0;" parent="1" source="GBLBe9M7HUZ7NNClnXE3-9" target="GBLBe9M7HUZ7NNClnXE3-12" edge="1">
          <mxGeometry relative="1" as="geometry">
            <mxPoint x="638" y="60" as="targetPoint" />
            <Array as="points">
              <mxPoint x="638" y="146" />
              <mxPoint x="639" y="83" />
            </Array>
          </mxGeometry>
        </mxCell>
        <mxCell id="GBLBe9M7HUZ7NNClnXE3-5" style="edgeStyle=orthogonalEdgeStyle;rounded=0;orthogonalLoop=1;jettySize=auto;html=1;exitX=0.5;exitY=1;exitDx=0;exitDy=0;entryX=0.5;entryY=0;entryDx=0;entryDy=0;" parent="1" source="GBLBe9M7HUZ7NNClnXE3-9" target="GBLBe9M7HUZ7NNClnXE3-17" edge="1">
          <mxGeometry relative="1" as="geometry" />
        </mxCell>
        <mxCell id="GBLBe9M7HUZ7NNClnXE3-8" style="edgeStyle=orthogonalEdgeStyle;rounded=0;orthogonalLoop=1;jettySize=auto;html=1;exitX=0;exitY=0;exitDx=0;exitDy=0;entryX=0.5;entryY=1;entryDx=0;entryDy=0;" parent="1" source="GBLBe9M7HUZ7NNClnXE3-9" target="GBLBe9M7HUZ7NNClnXE3-12" edge="1">
          <mxGeometry relative="1" as="geometry">
            <Array as="points">
              <mxPoint x="582" y="150" />
              <mxPoint x="380" y="150" />
            </Array>
          </mxGeometry>
        </mxCell>
        <mxCell id="tBO8AAmjAjPt6X4575wv-1" style="edgeStyle=none;curved=1;rounded=0;orthogonalLoop=1;jettySize=auto;html=1;exitX=1;exitY=0.5;exitDx=0;exitDy=0;entryX=0;entryY=0.5;entryDx=0;entryDy=0;fontSize=12;startSize=8;endSize=8;" parent="1" source="GBLBe9M7HUZ7NNClnXE3-9" target="GBLBe9M7HUZ7NNClnXE3-27" edge="1">
          <mxGeometry relative="1" as="geometry" />
        </mxCell>
        <mxCell id="GBLBe9M7HUZ7NNClnXE3-9" value="" style="ellipse;whiteSpace=wrap;html=1;aspect=fixed;" parent="1" vertex="1">
          <mxGeometry x="570" y="220" width="80" height="80" as="geometry" />
        </mxCell>
        <mxCell id="GBLBe9M7HUZ7NNClnXE3-10" value="cargoService" style="rounded=1;whiteSpace=wrap;html=1;" parent="1" vertex="1">
          <mxGeometry x="610" y="270" width="60" height="20" as="geometry" />
        </mxCell>
        <mxCell id="GBLBe9M7HUZ7NNClnXE3-11" style="edgeStyle=orthogonalEdgeStyle;rounded=0;orthogonalLoop=1;jettySize=auto;html=1;exitX=1;exitY=0.5;exitDx=0;exitDy=0;entryX=0.5;entryY=0;entryDx=0;entryDy=0;" parent="1" source="GBLBe9M7HUZ7NNClnXE3-12" target="GBLBe9M7HUZ7NNClnXE3-9" edge="1">
          <mxGeometry relative="1" as="geometry" />
        </mxCell>
        <mxCell id="GBLBe9M7HUZ7NNClnXE3-12" value="" style="ellipse;whiteSpace=wrap;html=1;aspect=fixed;" parent="1" vertex="1">
          <mxGeometry x="340" y="60" width="80" height="80" as="geometry" />
        </mxCell>
        <mxCell id="GBLBe9M7HUZ7NNClnXE3-13" value="productservice" style="rounded=1;whiteSpace=wrap;html=1;" parent="1" vertex="1">
          <mxGeometry x="380" y="110" width="60" height="20" as="geometry" />
        </mxCell>
        <mxCell id="GBLBe9M7HUZ7NNClnXE3-15" value="" style="ellipse;whiteSpace=wrap;html=1;aspect=fixed;" parent="1" vertex="1">
          <mxGeometry x="280" y="420" width="80" height="80" as="geometry" />
        </mxCell>
        <mxCell id="GBLBe9M7HUZ7NNClnXE3-16" value="robotControl" style="rounded=1;whiteSpace=wrap;html=1;" parent="1" vertex="1">
          <mxGeometry x="320" y="470" width="60" height="20" as="geometry" />
        </mxCell>
        <mxCell id="GBLBe9M7HUZ7NNClnXE3-17" value="" style="ellipse;whiteSpace=wrap;html=1;aspect=fixed;" parent="1" vertex="1">
          <mxGeometry x="480" y="420" width="80" height="80" as="geometry" />
        </mxCell>
        <mxCell id="GBLBe9M7HUZ7NNClnXE3-18" value="cargoHold" style="rounded=1;whiteSpace=wrap;html=1;" parent="1" vertex="1">
          <mxGeometry x="520" y="470" width="60" height="20" as="geometry" />
        </mxCell>
        <mxCell id="GBLBe9M7HUZ7NNClnXE3-19" value="1. PID e peso (entry in db)" style="text;html=1;align=center;verticalAlign=middle;whiteSpace=wrap;rounded=0;" parent="1" vertex="1">
          <mxGeometry x="510" y="110" width="100" height="30" as="geometry" />
        </mxCell>
        <mxCell id="GBLBe9M7HUZ7NNClnXE3-20" value="4. esito positivo -&amp;gt; ok" style="text;html=1;align=center;verticalAlign=middle;whiteSpace=wrap;rounded=0;" parent="1" vertex="1">
          <mxGeometry x="640" y="100" width="120" height="30" as="geometry" />
        </mxCell>
        <mxCell id="GBLBe9M7HUZ7NNClnXE3-21" value="2. slot libero? peso ok? PID" style="text;html=1;align=center;verticalAlign=middle;whiteSpace=wrap;rounded=0;" parent="1" vertex="1">
          <mxGeometry x="500" y="320" width="100" height="30" as="geometry" />
        </mxCell>
        <mxCell id="GBLBe9M7HUZ7NNClnXE3-22" value="3. SlotX liber e assegnato a PID" style="text;html=1;align=center;verticalAlign=middle;whiteSpace=wrap;rounded=0;" parent="1" vertex="1">
          <mxGeometry x="630" y="390" width="100" height="30" as="geometry" />
        </mxCell>
        <mxCell id="GBLBe9M7HUZ7NNClnXE3-23" style="edgeStyle=orthogonalEdgeStyle;rounded=0;orthogonalLoop=1;jettySize=auto;html=1;exitX=1;exitY=0;exitDx=0;exitDy=0;entryX=0.744;entryY=1.033;entryDx=0;entryDy=0;entryPerimeter=0;" parent="1" source="GBLBe9M7HUZ7NNClnXE3-17" target="GBLBe9M7HUZ7NNClnXE3-9" edge="1">
          <mxGeometry relative="1" as="geometry" />
        </mxCell>
        <mxCell id="GBLBe9M7HUZ7NNClnXE3-24" value="5. Sonar failure. D &amp;gt; DFREE per almeno 3 sec" style="text;html=1;align=center;verticalAlign=middle;whiteSpace=wrap;rounded=0;" parent="1" vertex="1">
          <mxGeometry x="230" y="220" width="140" height="30" as="geometry" />
        </mxCell>
        <mxCell id="GBLBe9M7HUZ7NNClnXE3-27" value="" style="ellipse;whiteSpace=wrap;html=1;aspect=fixed;" parent="1" vertex="1">
          <mxGeometry x="750" y="220" width="80" height="80" as="geometry" />
        </mxCell>
        <mxCell id="GBLBe9M7HUZ7NNClnXE3-28" value="gui" style="rounded=1;whiteSpace=wrap;html=1;" parent="1" vertex="1">
          <mxGeometry x="790" y="270" width="60" height="20" as="geometry" />
        </mxCell>
        <mxCell id="GBLBe9M7HUZ7NNClnXE3-31" value="0. Ho ricevuto Request To Load con PID" style="text;html=1;align=center;verticalAlign=middle;whiteSpace=wrap;rounded=0;" parent="1" vertex="1">
          <mxGeometry x="430" y="160" width="100" height="30" as="geometry" />
        </mxCell>
        <mxCell id="uo6nv0FwG1k0BHqkp9Sb-1" value="6. Aggiorna" style="text;html=1;align=center;verticalAlign=middle;whiteSpace=wrap;rounded=0;" parent="1" vertex="1">
          <mxGeometry x="640" y="230" width="120" height="30" as="geometry" />
        </mxCell>
      </root>
    </mxGraphModel>
  </diagram>
  <diagram name="Neg3 - Slot Occupati" id="phj9aQP11ByOH9yMrtvx">
    <mxGraphModel dx="1025" dy="499" grid="1" gridSize="10" guides="1" tooltips="1" connect="1" arrows="1" fold="1" page="1" pageScale="1" pageWidth="827" pageHeight="1169" math="0" shadow="0">
      <root>
        <mxCell id="0" />
        <mxCell id="1" parent="0" />
        <mxCell id="AgatTy13-pNeH2oPpSTZ-1" value="Prodotto legale - Slot occupati" style="text;html=1;align=center;verticalAlign=middle;whiteSpace=wrap;rounded=0;" parent="1" vertex="1">
          <mxGeometry x="40" y="20" width="210" height="30" as="geometry" />
        </mxCell>
        <mxCell id="zKPX1PJQiBBPevh5m__w-2" value="" style="ellipse;whiteSpace=wrap;html=1;aspect=fixed;" parent="1" vertex="1">
          <mxGeometry x="50" y="210" width="80" height="80" as="geometry" />
        </mxCell>
        <mxCell id="zKPX1PJQiBBPevh5m__w-3" value="sonarService" style="rounded=1;whiteSpace=wrap;html=1;" parent="1" vertex="1">
          <mxGeometry x="90" y="260" width="60" height="20" as="geometry" />
        </mxCell>
        <mxCell id="zKPX1PJQiBBPevh5m__w-5" style="edgeStyle=orthogonalEdgeStyle;rounded=0;orthogonalLoop=1;jettySize=auto;html=1;exitX=0.5;exitY=1;exitDx=0;exitDy=0;entryX=0.5;entryY=0;entryDx=0;entryDy=0;" parent="1" source="zKPX1PJQiBBPevh5m__w-9" target="zKPX1PJQiBBPevh5m__w-17" edge="1">
          <mxGeometry relative="1" as="geometry" />
        </mxCell>
        <mxCell id="zKPX1PJQiBBPevh5m__w-7" style="edgeStyle=orthogonalEdgeStyle;rounded=0;orthogonalLoop=1;jettySize=auto;html=1;exitX=1;exitY=0.5;exitDx=0;exitDy=0;entryX=0;entryY=0.5;entryDx=0;entryDy=0;" parent="1" source="zKPX1PJQiBBPevh5m__w-9" target="zKPX1PJQiBBPevh5m__w-27" edge="1">
          <mxGeometry relative="1" as="geometry" />
        </mxCell>
        <mxCell id="zKPX1PJQiBBPevh5m__w-8" style="edgeStyle=orthogonalEdgeStyle;rounded=0;orthogonalLoop=1;jettySize=auto;html=1;exitX=0;exitY=0;exitDx=0;exitDy=0;entryX=0.5;entryY=1;entryDx=0;entryDy=0;" parent="1" source="zKPX1PJQiBBPevh5m__w-9" target="zKPX1PJQiBBPevh5m__w-12" edge="1">
          <mxGeometry relative="1" as="geometry">
            <Array as="points">
              <mxPoint x="502" y="140" />
              <mxPoint x="300" y="140" />
            </Array>
          </mxGeometry>
        </mxCell>
        <mxCell id="zKPX1PJQiBBPevh5m__w-9" value="" style="ellipse;whiteSpace=wrap;html=1;aspect=fixed;" parent="1" vertex="1">
          <mxGeometry x="490" y="210" width="80" height="80" as="geometry" />
        </mxCell>
        <mxCell id="zKPX1PJQiBBPevh5m__w-10" value="cargoService" style="rounded=1;whiteSpace=wrap;html=1;" parent="1" vertex="1">
          <mxGeometry x="530" y="260" width="60" height="20" as="geometry" />
        </mxCell>
        <mxCell id="zKPX1PJQiBBPevh5m__w-11" style="edgeStyle=orthogonalEdgeStyle;rounded=0;orthogonalLoop=1;jettySize=auto;html=1;exitX=1;exitY=0.5;exitDx=0;exitDy=0;entryX=0.5;entryY=0;entryDx=0;entryDy=0;" parent="1" source="zKPX1PJQiBBPevh5m__w-12" target="zKPX1PJQiBBPevh5m__w-9" edge="1">
          <mxGeometry relative="1" as="geometry" />
        </mxCell>
        <mxCell id="zKPX1PJQiBBPevh5m__w-12" value="" style="ellipse;whiteSpace=wrap;html=1;aspect=fixed;" parent="1" vertex="1">
          <mxGeometry x="260" y="50" width="80" height="80" as="geometry" />
        </mxCell>
        <mxCell id="zKPX1PJQiBBPevh5m__w-13" value="productservice" style="rounded=1;whiteSpace=wrap;html=1;" parent="1" vertex="1">
          <mxGeometry x="300" y="100" width="60" height="20" as="geometry" />
        </mxCell>
        <mxCell id="zKPX1PJQiBBPevh5m__w-15" value="" style="ellipse;whiteSpace=wrap;html=1;aspect=fixed;" parent="1" vertex="1">
          <mxGeometry x="200" y="410" width="80" height="80" as="geometry" />
        </mxCell>
        <mxCell id="zKPX1PJQiBBPevh5m__w-16" value="robotControl" style="rounded=1;whiteSpace=wrap;html=1;" parent="1" vertex="1">
          <mxGeometry x="240" y="460" width="60" height="20" as="geometry" />
        </mxCell>
        <mxCell id="zKPX1PJQiBBPevh5m__w-17" value="" style="ellipse;whiteSpace=wrap;html=1;aspect=fixed;" parent="1" vertex="1">
          <mxGeometry x="400" y="410" width="80" height="80" as="geometry" />
        </mxCell>
        <mxCell id="zKPX1PJQiBBPevh5m__w-18" value="cargoHold" style="rounded=1;whiteSpace=wrap;html=1;" parent="1" vertex="1">
          <mxGeometry x="440" y="460" width="60" height="20" as="geometry" />
        </mxCell>
        <mxCell id="zKPX1PJQiBBPevh5m__w-19" value="1. PID e peso (entry in db)" style="text;html=1;align=center;verticalAlign=middle;whiteSpace=wrap;rounded=0;" parent="1" vertex="1">
          <mxGeometry x="430" y="100" width="100" height="30" as="geometry" />
        </mxCell>
        <mxCell id="zKPX1PJQiBBPevh5m__w-21" value="2. slot libero? peso ok? PID" style="text;html=1;align=center;verticalAlign=middle;whiteSpace=wrap;rounded=0;" parent="1" vertex="1">
          <mxGeometry x="420" y="310" width="100" height="30" as="geometry" />
        </mxCell>
        <mxCell id="zKPX1PJQiBBPevh5m__w-22" value="3. Slot occupati" style="text;html=1;align=center;verticalAlign=middle;whiteSpace=wrap;rounded=0;" parent="1" vertex="1">
          <mxGeometry x="550" y="380" width="100" height="30" as="geometry" />
        </mxCell>
        <mxCell id="zKPX1PJQiBBPevh5m__w-23" style="edgeStyle=orthogonalEdgeStyle;rounded=0;orthogonalLoop=1;jettySize=auto;html=1;exitX=1;exitY=0;exitDx=0;exitDy=0;entryX=0.744;entryY=1.033;entryDx=0;entryDy=0;entryPerimeter=0;" parent="1" source="zKPX1PJQiBBPevh5m__w-17" target="zKPX1PJQiBBPevh5m__w-9" edge="1">
          <mxGeometry relative="1" as="geometry" />
        </mxCell>
        <mxCell id="zKPX1PJQiBBPevh5m__w-27" value="" style="ellipse;whiteSpace=wrap;html=1;aspect=fixed;" parent="1" vertex="1">
          <mxGeometry x="670" y="210" width="80" height="80" as="geometry" />
        </mxCell>
        <mxCell id="zKPX1PJQiBBPevh5m__w-28" value="gui" style="rounded=1;whiteSpace=wrap;html=1;" parent="1" vertex="1">
          <mxGeometry x="710" y="260" width="60" height="20" as="geometry" />
        </mxCell>
        <mxCell id="zKPX1PJQiBBPevh5m__w-29" value="4. Aggiorna" style="text;html=1;align=center;verticalAlign=middle;whiteSpace=wrap;rounded=0;" parent="1" vertex="1">
          <mxGeometry x="570" y="220" width="120" height="30" as="geometry" />
        </mxCell>
        <mxCell id="zKPX1PJQiBBPevh5m__w-31" value="0. Ho ricevuto Request To Load con PID" style="text;html=1;align=center;verticalAlign=middle;whiteSpace=wrap;rounded=0;" parent="1" vertex="1">
          <mxGeometry x="350" y="150" width="100" height="30" as="geometry" />
        </mxCell>
      </root>
    </mxGraphModel>
  </diagram>
</mxfile>
